<svg xmlns="http://www.w3.org/2000/svg" viewBox="32.3944 4.9649 83.43 66.84">
	<path d="m 76.4874 5.1456 l 5.335 1.2845 l 6.9764 3.6127 l 5.499 1.2044 l 3.6935 2.569 l 4.432 3.2115 l 3.6114 2.1678 l 2.6263 3.4522 l 4.0218 2.569 l 2.6263 3.4522 l 0.4104 2.8903 l -0.5744 4.4156 l -1.6414 3.2918 l -3.5293 3.7734 l -6.402 2.1675 l -6.0737 0.6422 l -5.499 -0.5619 l -2.9548 1.0437 l -2.6263 3.5326 l 0.4102 2.81 v 3.5323 l -4.1858 1.5255 l -2.2159 0.6422 l -6.402 -0.4015 h -4.7605 l -4.8424 -2.569 l -4.1858 1.1238 l -2.4623 1.927 l -1.7236 1.2845 l -1.7236 2.5692 l -2.2161 1.686 l -1.231 1.9267 l -0.4104 1.9267 l -2.2983 2.4889 l -0.9849 1.0437 l -3.5293 0.3211 l 0.4565 -0.8029 l 0.94 -1.1035 l 0.9403 -0.7358 l 0.6581 -1.1955 l 0.8462 -0.6438 l 0.1878 -0.46 l 0.0941 -0.8275 l 0.3762 -1.2875 l 1.5982 -2.4833 l -0.6581 1.3795 l 1.1281 -2.4831 l 0.3762 -1.1955 l -0.3762 -1.5635 l -0.376 -1.8393 l -0.7522 -1.4713 l -1.2222 -1.0118 l -1.4103 -0.9195 l -1.5982 -0.9198 l -0.8462 -0.8278 l -0.2822 -1.1955 l 0.1881 -1.0115 l -1.3163 -1.2875 l 0.5641 -1.2875 l -0.2819 -2.1153 l 0.47 -0.8278 l 0.47 -0.6438 h 0.9403 l -1.0343 -0.7358 l -1.0652 -0.4496 l -3.201 -2.8901 l -5.6633 -2.8903 l -0.0821 -2.2479 l -1.231 -3.7734 l 1.1491 -2.4085 l 1.8876 -2.9707 l 5.4171 -2.1678 l 2.7906 -3.3719 l 4.6784 -2.4085 l 2.8724 -3.5323 l 4.268 -1.4452 l 3.4471 -2.3282 l 5.335 -0.8833 l 2.7087 -1.7663 l 2.7906 -0.4816 l 3.2829 -0.5622 l 2.3804 -0.5619 z" stroke="#FF0000" stroke-width="0.1" fill="#000000"/>
</svg>