<svg xmlns="http://www.w3.org/2000/svg" viewBox="48.7419 7.5986 124.8 99.95">
	<path d="m 114.7312 7.7185 l 8.0024 1.9267 l 10.4646 5.419 l 8.2485 1.8066 l 5.5403 3.8535 l 6.648 4.8172 l 5.4171 3.2516 l 3.9394 5.1784 l 6.0327 3.8535 l 3.9394 5.1784 l 0.6156 4.3355 l -0.8617 6.6234 l -2.4622 4.9377 l -5.2939 5.6601 l -9.6029 3.2513 l -9.1105 0.9634 l -8.2485 -0.8428 l -4.4322 1.5656 l -3.9394 5.2989 l 0.6152 4.215 v 5.2985 l -6.2788 2.2883 l -3.3238 0.9634 l -9.6029 -0.6022 h -7.1408 l -7.2636 -3.8535 l -6.2788 1.6857 l -3.6934 2.8905 l -2.5853 1.9267 l -2.5853 3.8538 l -3.3242 2.5289 l -1.8465 2.8901 l -0.6156 2.8901 l -3.4474 3.7333 l -1.4773 1.5656 l -5.2939 0.4817 l 0.6848 -1.2044 l 1.41 -1.6553 l 1.4104 -1.1036 l 0.9872 -1.7933 l 1.2694 -0.9656 l 0.2818 -0.69 l 0.1411 -1.2413 l 0.5643 -1.9313 l 2.3972 -3.7249 l -0.9872 2.0693 l 1.6922 -3.7246 l 0.5643 -1.7933 l -0.5643 -2.3453 l -0.5639 -2.7589 l -1.1283 -2.2069 l -1.8333 -1.5177 l -2.1155 -1.3793 l -2.3972 -1.3796 l -1.2694 -1.2417 l -0.4232 -1.7933 l 0.2822 -1.5173 l -1.9744 -1.9313 l 0.8461 -1.9313 l -0.4229 -3.1729 l 0.705 -1.2417 l 0.705 -0.9656 h 1.4104 l -1.5515 -1.1036 l -1.5978 -0.6744 l -4.8015 -4.3351 l -8.4949 -4.3355 l -0.1232 -3.3718 l -1.8465 -5.66 l 1.7237 -3.6128 l 2.8314 -4.456 l 8.1257 -3.2516 l 4.1858 -5.0579 l 7.0176 -3.6128 l 4.3087 -5.2985 l 6.402 -2.1678 l 5.1707 -3.4923 l 8.0024 -1.3249 l 4.063 -2.6494 l 4.1858 -0.7223 l 4.9243 -0.8432 l 3.5706 -0.8428 z" fill="#d9d9d9"/>
</svg>